<svg width="47" height="47" viewBox="0 0 47 47" fill="none" xmlns="http://www.w3.org/2000/svg">
<g clip-path="url(#clip0)">
<path d="M0.0114937 21.4645C0.010437 20.9003 0.46703 20.4422 1.03116 20.4412C1.30313 20.4407 1.56408 20.5487 1.75618 20.7413L23.5052 42.4923L45.2541 20.7413C45.6598 20.3493 46.3065 20.3606 46.6984 20.7664C47.0807 21.1623 47.0807 21.7898 46.6984 22.1856L24.2263 44.6578C23.8274 45.0565 23.1808 45.0565 22.7819 44.6578L0.309788 22.1857C0.118744 21.9942 0.0114937 21.7349 0.0114937 21.4645Z" fill="#67DAFF"/>
<path d="M0.0114975 3.07819C0.0104446 2.51405 0.467037 2.05593 1.03117 2.05487C1.30313 2.05439 1.56409 2.16241 1.75619 2.35499L23.5052 24.106L45.2541 2.35499C45.6535 1.95557 46.301 1.95557 46.7005 2.35499C47.0999 2.75441 47.0999 3.40196 46.7005 3.80138L24.2283 26.2736C23.8294 26.6723 23.1828 26.6723 22.7839 26.2736L0.311806 3.80138C0.119614 3.60976 0.0114975 3.34958 0.0114975 3.07819Z" fill="#67DAFF"/>
</g>
<defs>
<clipPath id="clip0">
<rect width="47" height="47" fill="white" transform="translate(47) rotate(90)"/>
</clipPath>
</defs>
</svg>
